<svg width="136" height="128" viewBox="0 0 136 128" fill="none" xmlns="http://www.w3.org/2000/svg">
<g filter="url(#filter0_d)">
<path d="M124 89.8H116C116 63.4 94.4 41.8 68 41.8C41.6 41.8 20 63.4 20 89.8H12C12 59 37.2 33.8 68 33.8C98.8 33.8 124 59 124 89.8Z" fill="white"/>
<path d="M80 36.6H72V30C72 27.8 70.2 26 68 26C65.8 26 64 27.8 64 30V36.6H56V30C56 23.4 61.4 18 68 18C74.6 18 80 23.4 80 30V36.6Z" fill="white"/>
<path d="M106 83.4C104.4 83.4 102.8 82.4 102.2 80.6C98.6 69.2 89.4 60.4 78 57.2C75.8 56.6 74.6 54.4 75.2 52.2C75.8 50 78 48.8 80.2 49.4C94.2 53.4 105.2 64.2 109.8 78C110.4 80 109.4 82.4 107.2 83C106.8 83.4 106.4 83.4 106 83.4Z" fill="white"/>
<path d="M128 26H101C98.8 26 97 24.2 97 22C97 19.8 98.8 18 101 18H128C130.2 18 132 19.8 132 22C132 24.2 130.2 26 128 26Z" fill="white"/>
<path d="M128 38H108C105.8 38 104 36.2 104 34C104 31.8 105.8 30 108 30H128C130.2 30 132 31.8 132 34C132 36.2 130.2 38 128 38Z" fill="white"/>
<path d="M128 50H118.6C116.4 50 114.6 48.2 114.6 46C114.6 43.8 116.4 42 118.6 42H128C130.2 42 132 43.8 132 46C132 48.2 130.2 50 128 50Z" fill="white"/>
<path d="M122 106H14C8.4 106 4 101.6 4 96C4 90.4 8.4 86 14 86H122C127.6 86 132 90.4 132 96C132 101.6 127.6 106 122 106ZM14 94C13 94 12 95 12 96C12 97 13 98 14 98H122C123 98 124 97 124 96C124 95 123 94 122 94H14Z" fill="white"/>
</g>
<defs>
<filter id="filter0_d" x="0" y="0" width="136" height="136" filterUnits="userSpaceOnUse" color-interpolation-filters="sRGB">
<feFlood flood-opacity="0" result="BackgroundImageFix"/>
<feColorMatrix in="SourceAlpha" type="matrix" values="0 0 0 0 0 0 0 0 0 0 0 0 0 0 0 0 0 0 127 0"/>
<feOffset dy="4"/>
<feGaussianBlur stdDeviation="2"/>
<feColorMatrix type="matrix" values="0 0 0 0 0 0 0 0 0 0 0 0 0 0 0 0 0 0 0.25 0"/>
<feBlend mode="normal" in2="BackgroundImageFix" result="effect1_dropShadow"/>
<feBlend mode="normal" in="SourceGraphic" in2="effect1_dropShadow" result="shape"/>
</filter>
</defs>
</svg>
