<svg width="119" height="123" viewBox="0 0 119 123" fill="none" xmlns="http://www.w3.org/2000/svg">
<g clip-path="url(#clip0)" filter="url(#filter0_d)">
<path d="M57.5 97.0312C56.6734 97.0312 55.8433 96.7473 55.1713 96.1759C54.3016 95.4356 33.8172 77.8478 25.2713 58.6644C24.4627 56.8531 25.2784 54.7256 27.0933 53.9206C28.9009 53.1156 31.0284 53.9278 31.837 55.7427C38.0866 69.7762 51.8794 83.4109 57.4389 88.5536C67.2498 79.0302 86.25 57.748 86.25 43.9516C86.25 27.6431 73.352 14.375 57.5 14.375C41.648 14.375 28.75 27.6431 28.75 43.9516C28.75 45.9353 27.14 47.5453 25.1562 47.5453C23.1725 47.5453 21.5625 45.9353 21.5625 43.9516C21.5625 23.6792 37.6841 7.1875 57.5 7.1875C77.3159 7.1875 93.4375 23.6792 93.4375 43.9516C93.4375 65.1978 61.295 94.8355 59.9258 96.0897C59.2394 96.715 58.3697 97.0312 57.5 97.0312Z" fill="white"/>
<path d="M57.5 57.5C49.5722 57.5 43.125 51.0528 43.125 43.125C43.125 35.1972 49.5722 28.75 57.5 28.75C65.4278 28.75 71.875 35.1972 71.875 43.125C71.875 51.0528 65.4278 57.5 57.5 57.5ZM57.5 35.9375C53.5361 35.9375 50.3125 39.1611 50.3125 43.125C50.3125 47.0889 53.5361 50.3125 57.5 50.3125C61.4639 50.3125 64.6875 47.0889 64.6875 43.125C64.6875 39.1611 61.4639 35.9375 57.5 35.9375Z" fill="white"/>
<path d="M104.219 107.812H10.7813C9.50189 107.812 8.31595 107.133 7.67267 106.023C7.02939 104.912 7.0258 103.55 7.66189 102.436L22.0369 77.28C23.0216 75.5586 25.2174 74.9548 26.9388 75.9431C28.6602 76.9278 29.2603 79.1236 28.2756 80.845L16.9733 100.625H98.0231L86.7208 80.845C85.7361 79.1236 86.3363 76.9278 88.0577 75.9431C89.7791 74.9512 91.9749 75.5586 92.9595 77.28L107.335 102.436C107.971 103.55 107.967 104.912 107.324 106.023C106.684 107.133 105.498 107.812 104.219 107.812Z" fill="white"/>
</g>
<defs>
<filter id="filter0_d" x="-4" y="0" width="123" height="123" filterUnits="userSpaceOnUse" color-interpolation-filters="sRGB">
<feFlood flood-opacity="0" result="BackgroundImageFix"/>
<feColorMatrix in="SourceAlpha" type="matrix" values="0 0 0 0 0 0 0 0 0 0 0 0 0 0 0 0 0 0 127 0"/>
<feOffset dy="4"/>
<feGaussianBlur stdDeviation="2"/>
<feColorMatrix type="matrix" values="0 0 0 0 0 0 0 0 0 0 0 0 0 0 0 0 0 0 0.25 0"/>
<feBlend mode="normal" in2="BackgroundImageFix" result="effect1_dropShadow"/>
<feBlend mode="normal" in="SourceGraphic" in2="effect1_dropShadow" result="shape"/>
</filter>
<clipPath id="clip0">
<rect width="115" height="115" fill="white"/>
</clipPath>
</defs>
</svg>
