<svg width="40" height="68" viewBox="0 0 40 68" fill="none" xmlns="http://www.w3.org/2000/svg">
<path d="M40 27.8906C40 25.6701 39.0811 23.5964 37.4859 22.1057C37.8273 20.7125 38 19.3132 38 17.9297C38 8.04326 29.9252 0 20 0C10.0748 0 2 8.04326 2 17.9297C2 19.3441 2.1648 20.7433 2.49107 22.1052C0.910267 23.59 0 25.6635 0 27.8906C0 31.795 2.83453 35.0503 6.5608 35.7278L18.1255 66.7023C18.4167 67.4824 19.1643 68 20 68C20.8357 68 21.5833 67.4824 21.8745 66.7023L33.4392 35.7278C37.1656 35.0503 40 31.795 40 27.8906ZM10.7025 35.3904C11.9851 34.9305 13.1155 34.1525 14 33.1531C15.4671 34.8107 17.6123 35.8594 20 35.8594C22.3877 35.8594 24.5329 34.8107 26 33.1531C26.5373 33.7601 27.1644 34.2866 27.8624 34.7084L14.568 45.7438L10.7025 35.3904ZM20 60.2926L16.0464 49.7032L27.5048 40.1919L20 60.2926ZM32 31.875C29.7944 31.875 28 30.0876 28 27.8906C28 26.7904 27.1045 25.8984 26 25.8984C24.8955 25.8984 24 26.7904 24 27.8906C24 30.0876 22.2056 31.875 20 31.875C17.7944 31.875 16 30.0876 16 27.8906C16 26.7904 15.1045 25.8984 14 25.8984C12.8955 25.8984 12 26.7904 12 27.8906C12 30.0876 10.2056 31.875 8 31.875C5.7944 31.875 4 30.0876 4 27.8906C4 26.5164 4.69013 25.2609 5.84613 24.5323C6.618 24.0458 6.9608 23.1002 6.6792 22.2345C6.22853 20.8497 6 19.4013 6 17.9297C6 10.2402 12.2804 3.98438 20 3.98438C27.7196 3.98438 34 10.2402 34 17.9297C34 19.3456 33.7624 20.7941 33.2935 22.2345C33.0119 23.1001 33.3547 24.0457 34.1265 24.5322C35.2996 25.2717 36 26.5272 36 27.8906C36 30.0876 34.2056 31.875 32 31.875Z" fill="white"/>
</svg>
