<svg width="47" height="66" viewBox="0 0 47 66" fill="none" xmlns="http://www.w3.org/2000/svg">
<path d="M32.4524 54.3984C33.0704 54.3984 33.5714 53.9656 33.5714 53.4316C33.5714 52.8977 33.0704 52.4648 32.4524 52.4648C31.8344 52.4648 31.3333 52.8977 31.3333 53.4316C31.3333 53.9656 31.8344 54.3984 32.4524 54.3984Z" fill="white"/>
<path d="M12.3095 23.2031C12.9276 23.2031 13.4286 22.7703 13.4286 22.2363C13.4286 21.7024 12.9276 21.2695 12.3095 21.2695C11.6915 21.2695 11.1905 21.7024 11.1905 22.2363C11.1905 22.7703 11.6915 23.2031 12.3095 23.2031Z" fill="white"/>
<path d="M16.7857 27.0703C17.4037 27.0703 17.9048 26.6375 17.9048 26.1035C17.9048 25.5696 17.4037 25.1367 16.7857 25.1367C16.1677 25.1367 15.6667 25.5696 15.6667 26.1035C15.6667 26.6375 16.1677 27.0703 16.7857 27.0703Z" fill="white"/>
<path d="M46.6998 9.97593C46.4881 9.77947 46.1916 9.66797 45.881 9.66797H26.8571V6.76758C26.8571 6.23442 27.3591 5.80078 27.9762 5.80078H39.1667C39.7847 5.80078 40.2857 5.36804 40.2857 4.83398V0.966797C40.2857 0.432738 39.7847 0 39.1667 0H27.9762C23.6568 0 20.1429 3.036 20.1429 6.76758V9.66797H1.11904C0.808396 9.66797 0.511923 9.77947 0.300199 9.97593C0.0886247 10.1721 -0.019252 10.4357 0.0028305 10.7035L4.18344 61.5089C4.39054 64.0272 6.842 66 9.76451 66H37.2355C40.1579 66 42.6095 64.0272 42.8166 61.5088L46.9972 10.7033C47.0193 10.4357 46.9115 10.1721 46.6998 9.97593ZM40.192 11.6016L39.7147 17.4023H26.8571V11.6016H40.192ZM21.2619 55.6875H25.7381C26.3561 55.6875 26.8571 55.2548 26.8571 54.7207V19.3359H39.5555L36.1949 60.1768C33.6738 60.0639 32.2798 59.5405 30.8137 58.9902C29.0206 58.3171 27.1665 57.6211 23.5 57.6211C19.8336 57.6211 17.9794 58.3171 16.1864 58.9902C14.7203 59.5406 13.3262 60.0639 10.8051 60.1768L7.4445 19.3359H20.1429V54.7207C20.1429 55.2548 20.6439 55.6875 21.2619 55.6875ZM22.381 53.7539V19.3359H24.619V53.7539H22.381ZM22.381 6.76758C22.381 4.10205 24.8909 1.93359 27.9762 1.93359H38.0476V3.86719H27.9762C26.125 3.86719 24.619 5.16837 24.619 6.76758V9.66797H22.381V6.76758ZM24.619 11.6016V17.4023H22.381V14.502C22.381 13.9679 21.8799 13.5352 21.2619 13.5352C20.6439 13.5352 20.1429 13.9679 20.1429 14.502V17.4023H7.2853L6.80799 11.6016H24.619ZM40.5841 61.3716C40.4598 62.8827 38.989 64.0664 37.2355 64.0664H9.76451C8.01103 64.0664 6.54016 62.8827 6.41587 61.3716L2.32045 11.6016H4.56422L8.6483 61.2346C8.68993 61.7407 9.17723 62.1328 9.76451 62.1328C13.431 62.1328 15.2851 61.4368 17.0782 60.7637C18.7344 60.142 20.2986 59.5547 23.5 59.5547C26.7014 59.5547 28.2655 60.142 29.9218 60.7637C31.7149 61.4368 33.5689 62.1328 37.2355 62.1328C37.8228 62.1328 38.3101 61.7407 38.3517 61.2346L42.4356 11.6016H44.6794L40.5841 61.3716Z" fill="white"/>
</svg>
