<svg width="69" height="74" viewBox="0 0 69 74" fill="none" xmlns="http://www.w3.org/2000/svg">
<path d="M21.4088 0.022101C19.2309 -0.197595 17.204 1.2391 16.6474 3.50833L14.6514 11.6414C39.937 12.4349 57.0421 30.5194 58.1121 57.4596L65.786 55.1788C67.9045 54.5486 69.2213 52.3343 68.9692 49.9899C66.1552 23.8606 45.9249 2.5038 21.4088 0.022101ZM13.5288 16.2102L0.072004 71.0605C-0.0258227 71.459 -0.0239356 71.8781 0.0774747 72.2755C0.178885 72.6729 0.376232 73.0346 0.649608 73.3242C0.922984 73.6137 1.26272 73.8208 1.63454 73.9245C2.00637 74.0283 2.39713 74.025 2.76741 73.9151L53.8453 58.7243C53.2698 33.4462 37.2578 16.4993 13.5288 16.216V16.2102ZM17.2485 60.1277C16.3955 60.1277 15.5617 59.8565 14.8525 59.3482C14.1433 58.84 13.5905 58.1177 13.2641 57.2725C12.9377 56.4274 12.8523 55.4974 13.0187 54.6002C13.1851 53.703 13.5958 52.8789 14.199 52.2321C14.8021 51.5852 15.5705 51.1447 16.4071 50.9662C17.2437 50.7878 18.1108 50.8794 18.8988 51.2294C19.6869 51.5795 20.3604 52.1723 20.8343 52.9329C21.3082 53.6935 21.5611 54.5878 21.5611 55.5026C21.5611 56.7292 21.1067 57.9057 20.298 58.773C19.4892 59.6404 18.3923 60.1277 17.2485 60.1277ZM23.7174 38.1581C22.8645 38.1581 22.0307 37.8869 21.3215 37.3787C20.6122 36.8704 20.0595 36.1481 19.7331 35.3029C19.4067 34.4578 19.3213 33.5278 19.4877 32.6306C19.6541 31.7334 20.0648 30.9093 20.6679 30.2625C21.2711 29.6156 22.0395 29.1751 22.8761 28.9967C23.7127 28.8182 24.5798 28.9098 25.3678 29.2599C26.1558 29.6099 26.8294 30.2027 27.3033 30.9633C27.7771 31.724 28.0301 32.6182 28.0301 33.533C28.0301 34.7596 27.5757 35.9361 26.7669 36.8035C25.9582 37.6708 24.8612 38.1581 23.7174 38.1581ZM37.7335 53.19C36.8806 53.19 36.0468 52.9187 35.3376 52.4105C34.6283 51.9023 34.0756 51.1799 33.7492 50.3348C33.4228 49.4896 33.3374 48.5597 33.5038 47.6625C33.6702 46.7653 34.0809 45.9411 34.684 45.2943C35.2872 44.6474 36.0556 44.2069 36.8922 44.0285C37.7288 43.85 38.5959 43.9416 39.3839 44.2917C40.172 44.6417 40.8455 45.2346 41.3194 45.9952C41.7933 46.7558 42.0462 47.65 42.0462 48.5648C42.0462 49.7915 41.5918 50.9679 40.783 51.8353C39.9743 52.7027 38.8773 53.19 37.7335 53.19Z" fill="#F8F6F4"/>
</svg>
