<svg width="69" height="55" viewBox="0 0 69 55" fill="none" xmlns="http://www.w3.org/2000/svg">
<mask id="path-1-inside-1" fill="white">
<path d="M66.3047 36.8942V28.8361C67.9735 27.8356 69.0537 25.3906 68.6078 22.8192C65.733 6.19838 47.1827 0.253906 34.5 0.253906C28.2813 0.253906 21.2245 1.65949 15.2664 4.53381C14.5652 4.87226 14.2009 5.91173 14.4515 6.85612C14.7026 7.80122 15.4744 8.29221 16.1745 7.95448C16.404 7.84308 16.6383 7.73452 16.8741 7.62738L18.6429 14.175C19.4062 17.0024 21.7331 18.457 23.824 17.4324C25.9176 16.4057 27.0021 13.2724 26.2414 10.4478L24.7706 5.00069C26.2967 4.65443 27.8533 4.38481 29.4237 4.19749L32.1195 14.175C32.8828 17.0032 35.2096 18.457 37.3006 17.4331C39.3942 16.4057 40.4786 13.2724 39.718 10.4478L37.986 4.03572C39.6722 4.1755 41.3667 4.41532 43.0508 4.75093L45.5961 14.175C46.3599 17.0032 48.6862 18.457 50.7772 17.4331C52.8708 16.4057 53.9557 13.2724 53.1945 10.4471L52.4775 7.79554C57.7071 10.2654 64.4985 15.0612 65.983 23.6451C66.1668 24.7037 65.4413 25.6843 64.638 25.6843H4.36251C3.55655 25.6843 2.83376 24.7016 3.01749 23.6444C3.59287 20.316 5.01318 17.2877 7.23786 14.6425C7.79588 13.9791 7.84957 12.8311 7.35736 12.079C6.86462 11.3269 6.01286 11.2545 5.45485 11.9179C2.80165 15.0725 1.09813 18.7401 0.392715 22.8185C-0.0526428 25.3856 1.02285 27.8335 2.69531 28.8361V36.8942C1.12656 37.6442 0 39.6635 0 42.0312C0 49.0422 4.23196 54.7461 9.43359 54.7461H59.5664C64.768 54.7461 69 49.0422 69 42.0312C69 39.6635 67.8734 37.6442 66.3047 36.8942ZM22.9028 14.0189C22.2042 14.3609 21.4293 13.8734 21.1756 12.9326L19.4557 6.56663C20.3138 6.24947 21.194 5.95927 22.09 5.69674L23.7082 11.6888C23.962 12.631 23.6003 13.6762 22.9028 14.0189ZM36.3793 14.0189C35.6808 14.3609 34.9059 13.8734 34.6521 12.9319L32.2258 3.95341C32.9944 3.91084 33.7551 3.88672 34.5 3.88672C34.6979 3.88672 34.8896 3.88885 35.0791 3.89169L37.1848 11.6888C37.4385 12.631 37.0769 13.6762 36.3793 14.0189ZM49.8559 14.0189C49.1573 14.3609 48.3824 13.8734 48.1287 12.9326L46.113 5.46969C47.1822 5.76131 48.2298 6.09195 49.2479 6.45807L50.6613 11.6888C50.9151 12.631 50.5534 13.6762 49.8559 14.0189ZM48.5351 36.582L53.9257 29.3164H63.6094V36.582H48.5351ZM29.1094 43.0948L18.8867 29.3164H39.3326L29.1094 43.0948ZM5.39062 29.3164H15.0743L20.4649 36.582H5.39062V29.3164ZM43.1445 29.3164H50.1139L39.8906 43.0948L36.4062 38.3984L43.1445 29.3164ZM59.5664 51.1133H9.43359C5.71806 51.1133 2.69531 47.0391 2.69531 42.0312C2.69531 41.0294 3.29965 40.2148 4.04297 40.2148H23.1602L28.1565 46.9483C28.4198 47.3031 28.7646 47.4805 29.1094 47.4805C29.4542 47.4805 29.799 47.3031 30.0622 46.9483L34.5 40.9677L38.9378 46.9483C39.201 47.3031 39.5458 47.4805 39.8906 47.4805C40.2354 47.4805 40.5802 47.3031 40.8435 46.9483L45.8398 40.2148H64.957C65.7003 40.2148 66.3047 41.0294 66.3047 42.0312C66.3047 47.0391 63.2819 51.1133 59.5664 51.1133Z"/>
</mask>
<path d="M66.3047 36.8942V28.8361C67.9735 27.8356 69.0537 25.3906 68.6078 22.8192C65.733 6.19838 47.1827 0.253906 34.5 0.253906C28.2813 0.253906 21.2245 1.65949 15.2664 4.53381C14.5652 4.87226 14.2009 5.91173 14.4515 6.85612C14.7026 7.80122 15.4744 8.29221 16.1745 7.95448C16.404 7.84308 16.6383 7.73452 16.8741 7.62738L18.6429 14.175C19.4062 17.0024 21.7331 18.457 23.824 17.4324C25.9176 16.4057 27.0021 13.2724 26.2414 10.4478L24.7706 5.00069C26.2967 4.65443 27.8533 4.38481 29.4237 4.19749L32.1195 14.175C32.8828 17.0032 35.2096 18.457 37.3006 17.4331C39.3942 16.4057 40.4786 13.2724 39.718 10.4478L37.986 4.03572C39.6722 4.1755 41.3667 4.41532 43.0508 4.75093L45.5961 14.175C46.3599 17.0032 48.6862 18.457 50.7772 17.4331C52.8708 16.4057 53.9557 13.2724 53.1945 10.4471L52.4775 7.79554C57.7071 10.2654 64.4985 15.0612 65.983 23.6451C66.1668 24.7037 65.4413 25.6843 64.638 25.6843H4.36251C3.55655 25.6843 2.83376 24.7016 3.01749 23.6444C3.59287 20.316 5.01318 17.2877 7.23786 14.6425C7.79588 13.9791 7.84957 12.8311 7.35736 12.079C6.86462 11.3269 6.01286 11.2545 5.45485 11.9179C2.80165 15.0725 1.09813 18.7401 0.392715 22.8185C-0.0526428 25.3856 1.02285 27.8335 2.69531 28.8361V36.8942C1.12656 37.6442 0 39.6635 0 42.0312C0 49.0422 4.23196 54.7461 9.43359 54.7461H59.5664C64.768 54.7461 69 49.0422 69 42.0312C69 39.6635 67.8734 37.6442 66.3047 36.8942ZM22.9028 14.0189C22.2042 14.3609 21.4293 13.8734 21.1756 12.9326L19.4557 6.56663C20.3138 6.24947 21.194 5.95927 22.09 5.69674L23.7082 11.6888C23.962 12.631 23.6003 13.6762 22.9028 14.0189ZM36.3793 14.0189C35.6808 14.3609 34.9059 13.8734 34.6521 12.9319L32.2258 3.95341C32.9944 3.91084 33.7551 3.88672 34.5 3.88672C34.6979 3.88672 34.8896 3.88885 35.0791 3.89169L37.1848 11.6888C37.4385 12.631 37.0769 13.6762 36.3793 14.0189ZM49.8559 14.0189C49.1573 14.3609 48.3824 13.8734 48.1287 12.9326L46.113 5.46969C47.1822 5.76131 48.2298 6.09195 49.2479 6.45807L50.6613 11.6888C50.9151 12.631 50.5534 13.6762 49.8559 14.0189ZM48.5351 36.582L53.9257 29.3164H63.6094V36.582H48.5351ZM29.1094 43.0948L18.8867 29.3164H39.3326L29.1094 43.0948ZM5.39062 29.3164H15.0743L20.4649 36.582H5.39062V29.3164ZM43.1445 29.3164H50.1139L39.8906 43.0948L36.4062 38.3984L43.1445 29.3164ZM59.5664 51.1133H9.43359C5.71806 51.1133 2.69531 47.0391 2.69531 42.0312C2.69531 41.0294 3.29965 40.2148 4.04297 40.2148H23.1602L28.1565 46.9483C28.4198 47.3031 28.7646 47.4805 29.1094 47.4805C29.4542 47.4805 29.799 47.3031 30.0622 46.9483L34.5 40.9677L38.9378 46.9483C39.201 47.3031 39.5458 47.4805 39.8906 47.4805C40.2354 47.4805 40.5802 47.3031 40.8435 46.9483L45.8398 40.2148H64.957C65.7003 40.2148 66.3047 41.0294 66.3047 42.0312C66.3047 47.0391 63.2819 51.1133 59.5664 51.1133Z" fill="#FFFEFE"/>
<path d="M66.3047 36.8942H32.3047V58.3254L51.6399 67.5691L66.3047 36.8942ZM66.3047 28.8361L48.8224 -0.325057L32.3047 9.57743V28.8361H66.3047ZM68.6078 22.8192L35.1053 28.614L35.1065 28.6211L35.1077 28.6283L68.6078 22.8192ZM15.2664 4.53381L0.49333 -26.089L0.487216 -26.086L15.2664 4.53381ZM14.4515 6.85612L-18.4113 15.5758L-18.4084 15.5868L14.4515 6.85612ZM16.1745 7.95448L30.9466 38.5778L30.9833 38.5601L31.02 38.5422L16.1745 7.95448ZM16.8741 7.62738L49.6975 -1.23971L39.2576 -39.8852L2.81139 -23.3281L16.8741 7.62738ZM18.6429 14.175L51.4678 5.31342L51.4663 5.30787L18.6429 14.175ZM23.824 17.4324L38.7844 47.9642L38.7943 47.9593L23.824 17.4324ZM26.2414 10.4478L59.0717 1.60646L59.0688 1.59544L59.0658 1.58443L26.2414 10.4478ZM24.7706 5.00069L17.2477 -28.1566L-17.2848 -20.3217L-8.05384 13.864L24.7706 5.00069ZM29.4237 4.19749L62.2466 -4.67104L54.5804 -33.0444L25.3965 -29.5632L29.4237 4.19749ZM32.1195 14.175L64.9449 5.31549L64.9425 5.30642L32.1195 14.175ZM37.3006 17.4331L52.2526 47.969L52.2659 47.9625L52.2792 47.9559L37.3006 17.4331ZM39.718 10.4478L72.5483 1.60646L72.545 1.59414L72.5416 1.58183L39.718 10.4478ZM37.986 4.03572L40.7949 -29.8481L-7.46535 -33.8487L5.16231 12.9017L37.986 4.03572ZM43.0508 4.75093L75.8747 -4.11428L70.3764 -24.472L49.6959 -28.5934L43.0508 4.75093ZM45.5961 14.175L78.42 5.3098L78.4199 5.30974L45.5961 14.175ZM50.7772 17.4331L65.7292 47.969L65.7425 47.9625L65.7558 47.9559L50.7772 17.4331ZM53.1945 10.4471L86.0239 1.60211L86.0198 1.58702L86.0157 1.57194L53.1945 10.4471ZM52.4775 7.79554L66.9976 -22.948L0.443248 -54.3814L19.6563 16.6707L52.4775 7.79554ZM65.983 23.6451L32.4804 29.4391L32.4821 29.449L32.4838 29.4589L65.983 23.6451ZM3.01749 23.6444L36.5154 29.4657L36.518 29.4509L36.5206 29.4361L3.01749 23.6444ZM7.23786 14.6425L-18.7817 -7.24314L-18.7827 -7.24194L7.23786 14.6425ZM7.35736 12.079L35.8065 -6.53938L35.802 -6.54635L35.7974 -6.55332L7.35736 12.079ZM5.45485 11.9179L-20.5647 -9.96776L-20.5655 -9.96677L5.45485 11.9179ZM0.392715 22.8185L33.8923 28.6303L33.8938 28.6217L33.8953 28.6132L0.392715 22.8185ZM2.69531 28.8361H36.6953V9.57663L20.1765 -0.325678L2.69531 28.8361ZM2.69531 36.8942L17.3601 67.5691L36.6953 58.3254V36.8942H2.69531ZM22.9028 14.0189L37.8526 44.5558L37.8742 44.5452L37.8958 44.5346L22.9028 14.0189ZM21.1756 12.9326L54.0027 4.07932L54.0008 4.07213L53.9988 4.06494L21.1756 12.9326ZM19.4557 6.56663L7.66813 -25.3246L-21.4695 -14.5548L-13.3675 15.4343L19.4557 6.56663ZM22.09 5.69674L54.914 -3.16793L45.8589 -36.6971L12.5297 -26.9315L22.09 5.69674ZM23.7082 11.6888L56.5387 2.84794L56.5355 2.83601L56.5323 2.82408L23.7082 11.6888ZM36.3793 14.0189L51.3291 44.5558L51.3508 44.5452L51.3724 44.5346L36.3793 14.0189ZM34.6521 12.9319L67.4809 4.08483L67.4779 4.07339L67.4748 4.06196L34.6521 12.9319ZM32.2258 3.95341L30.3454 -29.9945L-11.5408 -27.6745L-0.596799 12.8233L32.2258 3.95341ZM35.0791 3.89169L67.9031 -4.97294L61.2196 -29.7206L35.5882 -30.1045L35.0791 3.89169ZM37.1848 11.6888L70.0153 2.84794L70.0121 2.83603L70.0088 2.82413L37.1848 11.6888ZM49.8559 14.0189L64.8057 44.5558L64.8273 44.5452L64.8489 44.5346L49.8559 14.0189ZM48.1287 12.9326L80.9558 4.07932L80.9525 4.06698L48.1287 12.9326ZM46.113 5.46969L55.0597 -27.3321L-2.1819 -42.9448L13.2892 14.3353L46.113 5.46969ZM49.2479 6.45807L82.0706 -2.41145L77.4436 -19.5341L60.7532 -25.5361L49.2479 6.45807ZM50.6613 11.6888L83.4918 2.84794L83.488 2.83358L83.4841 2.81924L50.6613 11.6888ZM48.5351 36.582L21.2298 16.3232L-19.0268 70.582H48.5351V36.582ZM53.9257 29.3164V-4.68359H36.8155L26.6204 9.05761L53.9257 29.3164ZM63.6094 29.3164H97.6094V-4.68359H63.6094V29.3164ZM63.6094 36.582V70.582H97.6094V36.582H63.6094ZM29.1094 43.0948L1.80404 63.3536L29.1087 100.156L56.4142 63.3543L29.1094 43.0948ZM18.8867 29.3164V-4.68359H-48.6752L-8.41867 49.5752L18.8867 29.3164ZM39.3326 29.3164L66.6374 49.5759L106.897 -4.68359H39.3326V29.3164ZM5.39062 29.3164V-4.68359H-28.6094V29.3164H5.39062ZM15.0743 29.3164L42.3796 9.05761L32.1845 -4.68359H15.0743V29.3164ZM20.4649 36.582V70.582H88.0268L47.7702 16.3232L20.4649 36.582ZM5.39062 36.582H-28.6094V70.582H5.39062V36.582ZM43.1445 29.3164V-4.68359H26.0342L15.8391 9.05761L43.1445 29.3164ZM50.1139 29.3164L77.4187 49.5759L117.678 -4.68359H50.1139V29.3164ZM39.8906 43.0948L12.5853 63.3536L39.8899 100.156L67.1955 63.3543L39.8906 43.0948ZM36.4062 38.3984L9.10086 18.1396L-5.92986 38.3984L9.10086 58.6572L36.4062 38.3984ZM23.1602 40.2148L50.4645 19.9547L40.2694 6.21484H23.1602V40.2148ZM28.1565 46.9483L55.4619 26.6895L55.4608 26.6881L28.1565 46.9483ZM30.0622 46.9483L2.75803 26.688L2.75687 26.6895L30.0622 46.9483ZM34.5 40.9677L61.8042 20.7073L34.5 -16.0896L7.19582 20.7073L34.5 40.9677ZM38.9378 46.9483L66.2431 26.6895L66.242 26.688L38.9378 46.9483ZM40.8435 46.9483L13.5391 26.6881L13.5381 26.6895L40.8435 46.9483ZM45.8398 40.2148V6.21484H28.7306L18.5355 19.9547L45.8398 40.2148ZM100.305 36.8942V28.8361H32.3047V36.8942H100.305ZM83.787 57.9972C99.7429 48.4314 104.477 30.6714 102.108 17.0101L35.1077 28.6283C34.2399 23.6238 34.7971 18.5013 36.6792 13.794C38.4711 9.31249 42.1226 3.69153 48.8224 -0.325057L83.787 57.9972ZM102.11 17.0244C98.4356 -4.22144 84.4762 -17.5264 71.4196 -24.5954C58.9639 -31.339 45.3707 -33.7461 34.5 -33.7461V34.2539C35.1211 34.2539 36.1123 34.3386 37.1857 34.5845C38.2676 34.8322 38.8864 35.1175 39.0441 35.2029C39.1929 35.2834 38.4155 34.9013 37.4152 33.6647C36.902 33.0304 36.385 32.2349 35.9528 31.296C35.5171 30.3496 35.2459 29.4271 35.1053 28.614L102.11 17.0244ZM34.5 -33.7461C23.7267 -33.7461 11.5391 -31.4177 0.49333 -26.089L30.0395 35.1566C30.3085 35.0268 30.9704 34.7644 31.9721 34.5478C32.9661 34.3328 33.8764 34.2539 34.5 34.2539V-33.7461ZM0.487216 -26.086C-10.0673 -20.9917 -15.3287 -12.2086 -17.5815 -5.78611C-19.9386 0.933915 -20.3189 8.38659 -18.4113 15.5758L47.3144 -1.86356C48.9713 4.38125 48.6479 10.842 46.5855 16.7216C44.6275 22.3036 39.899 30.3978 30.0456 35.1537L0.487216 -26.086ZM-18.4084 15.5868C-16.5147 22.7144 -11.904 30.9678 -3.1238 36.5615C6.36105 42.6041 19.2021 44.2431 30.9466 38.5778L1.40245 -22.6688C12.4468 -27.9964 24.5519 -26.4341 33.413 -20.7888C41.5695 -15.5924 45.6688 -8.05708 47.3114 -1.87454L-18.4084 15.5868ZM31.02 38.5422C30.9516 38.5754 30.9076 38.596 30.8958 38.6016C30.8842 38.6069 30.8946 38.602 30.9369 38.5828L2.81139 -23.3281C2.43367 -23.1565 1.91458 -22.9175 1.32902 -22.6333L31.02 38.5422ZM-15.9493 16.4945L-14.1805 23.042L51.4663 5.30787L49.6975 -1.23971L-15.9493 16.4945ZM-14.182 23.0365C-11.9919 31.1489 -6.79538 40.111 2.66172 46.0464C12.8095 52.4152 26.3884 54.0382 38.7844 47.9642L8.86364 -13.0993C19.1687 -18.1488 30.5388 -16.7407 38.8095 -11.55C46.3896 -6.79262 50.0411 0.0285216 51.4678 5.31342L-14.182 23.0365ZM38.7943 47.9593C50.0159 42.4563 55.7346 32.9536 58.2332 25.7345C60.8401 18.202 61.2675 9.76015 59.0717 1.60646L-6.58894 19.2891C-8.02407 13.9601 -7.75854 8.49718 -6.02701 3.49418C-4.40393 -1.19545 -0.274233 -8.61813 8.85377 -13.0945L38.7943 47.9593ZM59.0658 1.58443L57.595 -3.86266L-8.05384 13.864L-6.583 19.3111L59.0658 1.58443ZM32.2934 38.158C32.6726 38.0719 33.0625 38.0045 33.4508 37.9582L25.3965 -29.5632C22.6441 -29.2348 19.9207 -28.7631 17.2477 -28.1566L32.2934 38.158ZM-3.39934 13.066L-0.703504 23.0435L64.9425 5.30642L62.2466 -4.67104L-3.39934 13.066ZM-0.705954 23.0344C1.48375 31.1476 6.68021 40.1108 16.1383 46.0467C26.2857 52.4153 39.8605 54.0369 52.2526 47.969L22.3486 -13.1027C32.6498 -18.1467 44.0157 -16.7401 52.2861 -11.5496C59.8672 -6.79166 63.5186 0.0305647 64.9449 5.31549L-0.705954 23.0344ZM52.2792 47.9559C63.4948 42.452 69.2117 32.9528 71.71 25.7339C74.3166 18.202 74.7442 9.76037 72.5483 1.60646L6.88762 19.2891C5.45243 13.9598 5.71816 8.49723 7.44931 3.49497C9.07215 -1.19433 13.2 -8.61317 22.322 -13.0897L52.2792 47.9559ZM72.5416 1.58183L70.8097 -4.83023L5.16231 12.9017L6.89426 19.3137L72.5416 1.58183ZM35.1771 37.9195C35.546 37.9501 35.9599 38.0064 36.4057 38.0952L49.6959 -28.5934C46.7736 -29.1757 43.7983 -29.5991 40.7949 -29.8481L35.1771 37.9195ZM10.2269 13.6161L12.7722 23.0402L78.4199 5.30974L75.8747 -4.11428L10.2269 13.6161ZM12.7721 23.0401C14.9621 31.1487 20.1569 40.1104 29.6141 46.0462C39.762 52.4155 53.3371 54.0368 65.7292 47.969L35.8251 -13.1027C46.1262 -18.1467 57.4927 -16.7404 65.7637 -11.549C73.3441 -6.79122 76.9938 0.0294316 78.42 5.3098L12.7721 23.0401ZM65.7558 47.9559C76.97 42.4527 82.6875 32.9548 85.1864 25.7346C87.7937 18.2013 88.2212 9.75782 86.0239 1.60211L20.3652 19.292C18.929 13.9617 19.1946 8.49756 20.9263 3.49408C22.5497 -1.19629 26.6779 -8.61385 35.7986 -13.0897L65.7558 47.9559ZM86.0157 1.57194L85.2987 -1.07959L19.6563 16.6707L20.3733 19.3222L86.0157 1.57194ZM37.9575 38.5391C38.2614 38.6827 37.5254 38.4193 36.3894 37.2638C34.9931 35.8436 33.1214 33.1458 32.4804 29.4391L99.4857 17.8511C95.1497 -7.22065 75.7024 -18.8368 66.9976 -22.948L37.9575 38.5391ZM32.4838 29.4589C30.9855 20.8258 33.1303 12.411 37.6388 5.83537C41.8144 -0.254882 50.8342 -8.3157 64.638 -8.3157V59.6843C79.2452 59.6843 89.0293 51.1332 93.7226 44.288C98.7487 36.9574 101.164 27.523 99.4823 17.8313L32.4838 29.4589ZM64.638 -8.3157H4.36251V59.6843H64.638V-8.3157ZM4.36251 -8.3157C18.1741 -8.3157 27.2015 -0.245317 31.3806 5.86341C35.8821 12.4435 38.0126 20.8504 36.5154 29.4657L-30.4805 17.823C-32.1614 27.4956 -29.7613 36.9225 -24.7429 44.2582C-20.0468 51.1226 -10.255 59.6843 4.36251 59.6843V-8.3157ZM36.5206 29.4361C36.0449 32.1877 34.8108 34.6812 33.2584 36.527L-18.7827 -7.24194C-24.7845 -0.105852 -28.8591 8.44423 -30.4856 17.8527L36.5206 29.4361ZM33.2574 36.5282C39.2388 29.4171 41.3561 21.3728 41.6545 14.9789C41.9557 8.52476 40.5602 0.724325 35.8065 -6.53938L-21.0918 30.6974C-25.3533 24.1858 -26.5295 17.3354 -26.2716 11.8092C-26.0165 6.34318 -24.205 -0.795415 -18.7817 -7.24314L33.2574 36.5282ZM35.7974 -6.55332C30.8789 -14.0609 21.8374 -21.3485 9.30194 -22.4109C-3.5127 -23.497 -14.1765 -17.5626 -20.5647 -9.96776L31.4744 33.8036C25.6442 40.735 15.6853 46.3739 3.55923 45.3462C-8.28766 44.3421 -16.6569 37.4668 -21.0827 30.7113L35.7974 -6.55332ZM-20.5655 -9.96677C-27.1081 -2.18779 -31.3826 7.03742 -33.1098 17.0238L33.8953 28.6132C33.752 29.4413 33.4778 30.3789 33.0302 31.3428C32.5823 32.3073 32.036 33.1359 31.4752 33.8026L-20.5655 -9.96677ZM-33.1069 17.0067C-35.4698 30.6267 -30.776 48.4124 -14.7859 57.9978L20.1765 -0.325678C26.8876 3.69732 30.5395 9.32971 32.3284 13.8127C34.2061 18.5181 34.7591 23.6341 33.8923 28.6303L-33.1069 17.0067ZM-31.3047 28.8361V36.8942H36.6953V28.8361H-31.3047ZM-11.9694 6.2194C-28.628 14.1834 -34 30.6379 -34 42.0312H34C34 46.1398 33.0402 50.5854 30.7504 54.8729C28.5356 59.0201 24.3769 64.2145 17.3601 67.5691L-11.9694 6.2194ZM-34 42.0312C-34 52.1212 -31.0007 62.5676 -24.5392 71.2766C-18.0915 79.9669 -6.46125 88.7461 9.43359 88.7461V20.7461C20.1268 20.7461 27.0402 26.6733 30.0715 30.759C33.1166 34.8633 34 38.9522 34 42.0312H-34ZM9.43359 88.7461H59.5664V20.7461H9.43359V88.7461ZM59.5664 88.7461C75.4613 88.7461 87.0915 79.9669 93.5391 71.2766C100.001 62.5676 103 52.1212 103 42.0312H35C35 38.9522 35.8834 34.8633 38.9285 30.759C41.9598 26.6733 48.8732 20.7461 59.5664 20.7461V88.7461ZM103 42.0312C103 30.6379 97.628 14.1834 80.9694 6.2194L51.6399 67.5691C44.6231 64.2145 40.4644 59.0201 38.2496 54.8729C35.9598 50.5854 35 46.1398 35 42.0312H103ZM7.95299 -16.5181C18.9697 -21.9114 31.0837 -20.4157 39.9743 -14.8237C48.1654 -9.67182 52.3243 -2.14417 54.0027 4.07932L-11.6515 21.7858C-9.71938 28.9501 -5.04623 37.1919 3.77039 42.7373C13.2866 48.7227 26.1373 50.2912 37.8526 44.5558L7.95299 -16.5181ZM53.9988 4.06494L52.279 -2.301L-13.3675 15.4343L-11.6477 21.8002L53.9988 4.06494ZM31.2433 38.4579C31.338 38.4229 31.4739 38.3766 31.6502 38.325L12.5297 -26.9315C10.9141 -26.4581 9.28966 -25.924 7.66813 -25.3246L31.2433 38.4579ZM-10.7341 14.5614L-9.11582 20.5534L56.5323 2.82408L54.914 -3.16793L-10.7341 14.5614ZM-9.12225 20.5296C-10.8104 14.2605 -10.4907 7.80863 -8.47102 1.96764C-6.56056 -3.55746 -1.90959 -11.6724 7.90978 -16.4969L37.8958 44.5346C48.4127 39.3674 53.5932 30.5585 55.7955 24.1896C58.1069 17.5048 58.4806 10.0593 56.5387 2.84794L-9.12225 20.5296ZM21.4296 -16.5181C32.4468 -21.9117 44.5635 -20.4162 53.4568 -14.8202C61.6494 -9.66493 65.8048 -2.13475 67.4809 4.08483L1.82334 21.7789C3.75319 28.94 8.42292 37.1847 17.2411 42.7335C26.7599 48.7232 39.6134 50.2914 51.3291 44.5558L21.4296 -16.5181ZM67.4748 4.06196L65.0485 -4.91648L-0.596799 12.8233L1.82951 21.8017L67.4748 4.06196ZM34.1062 37.9014C34.3546 37.8876 34.4801 37.8867 34.5 37.8867V-30.1133C33.0301 -30.1133 31.6342 -30.0659 30.3454 -29.9945L34.1062 37.9014ZM34.5 37.8867C34.4773 37.8867 34.4688 37.8866 34.4797 37.8867C34.4916 37.8868 34.5182 37.8871 34.57 37.8879L35.5882 -30.1045C35.3158 -30.1086 34.9366 -30.1133 34.5 -30.1133V37.8867ZM2.25502 12.7563L4.36073 20.5534L70.0088 2.82413L67.9031 -4.97294L2.25502 12.7563ZM4.35431 20.5296C2.66613 14.2605 2.98585 7.80863 5.00554 1.96764C6.916 -3.55746 11.567 -11.6724 21.3863 -16.4969L51.3724 44.5346C61.8892 39.3674 67.0698 30.5585 69.272 24.1896C71.5835 17.5048 71.9572 10.0593 70.0153 2.84794L4.35431 20.5296ZM34.9061 -16.5181C45.9228 -21.9114 58.0368 -20.4157 66.9275 -14.8237C75.1186 -9.67182 79.2774 -2.14417 80.9558 4.07932L15.3016 21.7858C17.2337 28.9501 21.9069 37.1919 30.7235 42.7373C40.2397 48.7227 53.0905 50.2912 64.8057 44.5558L34.9061 -16.5181ZM80.9525 4.06698L78.9368 -3.39589L13.2892 14.3353L15.3049 21.7981L80.9525 4.06698ZM37.1663 38.2715C37.383 38.3306 37.5767 38.3926 37.7426 38.4523L60.7532 -25.5361C58.8828 -26.2087 56.9814 -26.808 55.0597 -27.3321L37.1663 38.2715ZM16.4252 15.3276L17.8386 20.5583L83.4841 2.81924L82.0706 -2.41145L16.4252 15.3276ZM17.8309 20.5296C16.1427 14.2605 16.4624 7.80863 18.4821 1.96764C20.3926 -3.55746 25.0435 -11.6724 34.8629 -16.4969L64.8489 44.5346C75.3658 39.3674 80.5464 30.5585 82.7486 24.1896C85.0601 17.5048 85.4337 10.0593 83.4918 2.84794L17.8309 20.5296ZM75.8404 56.8408L81.2311 49.5752L26.6204 9.05761L21.2298 16.3232L75.8404 56.8408ZM53.9257 63.3164H63.6094V-4.68359H53.9257V63.3164ZM29.6094 29.3164V36.582H97.6094V29.3164H29.6094ZM63.6094 2.58203H48.5351V70.582H63.6094V2.58203ZM56.4147 22.836L46.192 9.05761L-8.41867 49.5752L1.80404 63.3536L56.4147 22.836ZM18.8867 63.3164H39.3326V-4.68359H18.8867V63.3164ZM12.0278 9.05694L1.80454 22.8354L56.4142 63.3543L66.6374 49.5759L12.0278 9.05694ZM5.39062 63.3164H15.0743V-4.68359H5.39062V63.3164ZM-12.2311 49.5752L-6.84044 56.8408L47.7702 16.3232L42.3796 9.05761L-12.2311 49.5752ZM20.4649 2.58203H5.39062V70.582H20.4649V2.58203ZM39.3906 36.582V29.3164H-28.6094V36.582H39.3906ZM43.1445 63.3164H50.1139V-4.68359H43.1445V63.3164ZM22.809 9.05694L12.5858 22.8354L67.1955 63.3543L77.4187 49.5759L22.809 9.05694ZM67.196 22.836L63.7115 18.1396L9.10086 58.6572L12.5853 63.3536L67.196 22.836ZM63.7115 58.6572L70.4498 49.5752L15.8391 9.05761L9.10086 18.1396L63.7115 58.6572ZM59.5664 17.1133H9.43359V85.1133H59.5664V17.1133ZM9.43359 17.1133C20.8694 17.1133 28.4568 23.4475 31.9765 28.1914C35.5098 32.9538 36.6953 37.951 36.6953 42.0312H-31.3047C-31.3047 51.1194 -28.6078 60.6576 -22.6342 68.709C-16.6743 76.742 -5.71777 85.1133 9.43359 85.1133V17.1133ZM36.6953 42.0312C36.6953 48.1102 34.9076 54.925 30.3957 61.0061C25.8956 67.0715 16.959 74.2148 4.04297 74.2148V6.21484C-9.61638 6.21484 -19.2268 13.7654 -24.2149 20.4886C-29.2148 27.2275 -31.3047 34.9504 -31.3047 42.0312H36.6953ZM4.04297 74.2148H23.1602V6.21484H4.04297V74.2148ZM-4.1441 60.475L0.852228 67.2085L55.4608 26.6881L50.4645 19.9547L-4.1441 60.475ZM0.851197 67.2071C6.461 74.7681 16.3276 81.4805 29.1094 81.4805V13.4805C41.2015 13.4805 50.3785 19.838 55.4619 26.6895L0.851197 67.2071ZM29.1094 81.4805C41.8911 81.4805 51.7578 74.7681 57.3676 67.2071L2.75687 26.6895C7.84024 19.838 17.0172 13.4805 29.1094 13.4805V81.4805ZM57.3664 67.2087L61.8042 61.228L7.19582 20.7073L2.75803 26.688L57.3664 67.2087ZM7.19582 61.228L11.6336 67.2087L66.242 26.688L61.8042 20.7073L7.19582 61.228ZM11.6324 67.2071C17.2423 74.7681 27.1089 81.4805 39.8906 81.4805V13.4805C51.9828 13.4805 61.1598 19.838 66.2431 26.6895L11.6324 67.2071ZM39.8906 81.4805C52.6724 81.4805 62.539 74.7681 68.1488 67.2071L13.5381 26.6895C18.6215 19.838 27.7985 13.4805 39.8906 13.4805V81.4805ZM68.1478 67.2085L73.1441 60.475L18.5355 19.9547L13.5391 26.6881L68.1478 67.2085ZM45.8398 74.2148H64.957V6.21484H45.8398V74.2148ZM64.957 74.2148C52.041 74.2148 43.1044 67.0715 38.6043 61.0061C34.0924 54.925 32.3047 48.1102 32.3047 42.0312H100.305C100.305 34.9504 98.2148 27.2275 93.2149 20.4886C88.2268 13.7654 78.6164 6.21484 64.957 6.21484V74.2148ZM32.3047 42.0312C32.3047 37.951 33.4902 32.9538 37.0235 28.1914C40.5432 23.4475 48.1306 17.1133 59.5664 17.1133V85.1133C74.7178 85.1133 85.6743 76.742 91.6342 68.709C97.6078 60.6576 100.305 51.1194 100.305 42.0312H32.3047Z" fill="white" mask="url(#path-1-inside-1)"/>
</svg>
