<svg width="67" height="67" viewBox="0 0 67 67" fill="none" xmlns="http://www.w3.org/2000/svg">
<path d="M60.3849 45.9251H21.4215L23.3779 41.9404L55.8833 41.8815C56.9826 41.8815 57.9248 41.0964 58.121 40.0103L62.6226 14.8133C62.7404 14.1524 62.5637 13.472 62.1319 12.9551C61.9185 12.7007 61.6522 12.4958 61.3517 12.3545C61.0512 12.2133 60.7235 12.1392 60.3915 12.1372L19.0399 11.9998L18.6866 10.3379C18.4641 9.27793 17.5088 8.50586 16.4227 8.50586H6.31382C5.70126 8.50586 5.11378 8.7492 4.68064 9.18235C4.24749 9.61549 4.00415 10.203 4.00415 10.8155C4.00415 11.4281 4.24749 12.0156 4.68064 12.4487C5.11378 12.8819 5.70126 13.1252 6.31382 13.1252H14.5514L16.0956 20.4664L19.897 38.8718L15.0029 46.8608C14.7487 47.2038 14.5956 47.6111 14.5609 48.0366C14.5263 48.4622 14.6113 48.8889 14.8066 49.2686C15.1992 50.0472 15.9909 50.5379 16.8676 50.5379H20.9766C20.1006 51.7014 19.6275 53.1185 19.6288 54.5749C19.6288 58.2782 22.6385 61.288 26.3418 61.288C30.0452 61.288 33.0549 58.2782 33.0549 54.5749C33.0549 53.1158 32.5708 51.696 31.7071 50.5379H42.2478C41.3718 51.7014 40.8987 53.1185 40.8999 54.5749C40.8999 58.2782 43.9097 61.288 47.613 61.288C51.3164 61.288 54.3261 58.2782 54.3261 54.5749C54.3261 53.1158 53.8419 51.696 52.9783 50.5379H60.3915C61.6608 50.5379 62.7011 49.5041 62.7011 48.2282C62.6973 47.6163 62.4517 47.0307 62.0177 46.5993C61.5838 46.1678 60.9968 45.9254 60.3849 45.9251V45.9251ZM20.0017 16.5537L57.6761 16.678L53.9859 37.3407L24.392 37.3931L20.0017 16.5537ZM26.3418 56.6425C25.2034 56.6425 24.2743 55.7134 24.2743 54.5749C24.2743 53.4364 25.2034 52.5073 26.3418 52.5073C27.4803 52.5073 28.4094 53.4364 28.4094 54.5749C28.4094 55.1233 28.1916 55.6492 27.8038 56.0369C27.4161 56.4247 26.8902 56.6425 26.3418 56.6425V56.6425ZM47.613 56.6425C46.4746 56.6425 45.5455 55.7134 45.5455 54.5749C45.5455 53.4364 46.4746 52.5073 47.613 52.5073C48.7515 52.5073 49.6806 53.4364 49.6806 54.5749C49.6806 55.1233 49.4628 55.6492 49.075 56.0369C48.6873 56.4247 48.1614 56.6425 47.613 56.6425V56.6425Z" fill="#FAFAFA"/>
</svg>
