<svg width="49" height="49" viewBox="0 0 49 49" fill="none" xmlns="http://www.w3.org/2000/svg">
<g filter="url(#filter0_d)">
<path d="M29.141 20.5L43.2952 6.37873C43.915 5.7589 44.2633 4.91822 44.2633 4.04165C44.2633 3.16507 43.915 2.3244 43.2952 1.70456C42.6754 1.08473 41.8347 0.736511 40.9581 0.736511C40.0816 0.736511 39.2409 1.08473 38.6211 1.70456L24.4998 15.8587L10.3785 1.70456C9.75872 1.08473 8.91804 0.736511 8.04147 0.736511C7.16489 0.736511 6.32422 1.08473 5.70438 1.70456C5.08455 2.3244 4.73633 3.16507 4.73633 4.04165C4.73633 4.91822 5.08455 5.7589 5.70438 6.37873L19.8586 20.5L5.70438 34.6212C5.39586 34.9272 5.15098 35.2913 4.98387 35.6924C4.81675 36.0935 4.73071 36.5238 4.73071 36.9583C4.73071 37.3929 4.81675 37.8231 4.98387 38.2242C5.15098 38.6253 5.39586 38.9894 5.70438 39.2954C6.01039 39.6039 6.37445 39.8488 6.77557 40.0159C7.17669 40.183 7.60693 40.2691 8.04147 40.2691C8.476 40.2691 8.90624 40.183 9.30736 40.0159C9.70848 39.8488 10.0725 39.6039 10.3785 39.2954L24.4998 25.1412L38.6211 39.2954C38.9271 39.6039 39.2911 39.8488 39.6922 40.0159C40.0934 40.183 40.5236 40.2691 40.9581 40.2691C41.3927 40.2691 41.8229 40.183 42.224 40.0159C42.6252 39.8488 42.9892 39.6039 43.2952 39.2954C43.6037 38.9894 43.8486 38.6253 44.0157 38.2242C44.1828 37.8231 44.2689 37.3929 44.2689 36.9583C44.2689 36.5238 44.1828 36.0935 44.0157 35.6924C43.8486 35.2913 43.6037 34.9272 43.2952 34.6212L29.141 20.5Z" fill="#EA1818"/>
</g>
<defs>
<filter id="filter0_d" x="0.730713" y="0.736511" width="47.5382" height="47.5326" filterUnits="userSpaceOnUse" color-interpolation-filters="sRGB">
<feFlood flood-opacity="0" result="BackgroundImageFix"/>
<feColorMatrix in="SourceAlpha" type="matrix" values="0 0 0 0 0 0 0 0 0 0 0 0 0 0 0 0 0 0 127 0"/>
<feOffset dy="4"/>
<feGaussianBlur stdDeviation="2"/>
<feColorMatrix type="matrix" values="0 0 0 0 0 0 0 0 0 0 0 0 0 0 0 0 0 0 0.25 0"/>
<feBlend mode="normal" in2="BackgroundImageFix" result="effect1_dropShadow"/>
<feBlend mode="normal" in="SourceGraphic" in2="effect1_dropShadow" result="shape"/>
</filter>
</defs>
</svg>
