<svg width="39" height="39" viewBox="0 0 39 39" fill="none" xmlns="http://www.w3.org/2000/svg">
<path d="M27.3 19.5C31.59 19.5 35.1 15.99 35.1 11.7C35.1 7.40999 31.59 3.89999 27.3 3.89999C23.01 3.89999 19.5 7.40999 19.5 11.7C19.5 15.99 23.01 19.5 27.3 19.5ZM25.35 9.74999V5.84999H29.25V9.74999H33.15V13.65H29.25V17.55H25.35V13.65H21.45V9.74999H25.35ZM17.55 11.7C17.55 8.57999 19.11 5.84999 21.45 3.89999H19.5C11.895 3.89999 5.84998 5.65499 5.84998 7.79999C5.84998 9.74999 10.92 11.31 17.55 11.7ZM19.5 29.25C11.895 29.25 5.84998 27.495 5.84998 25.35V31.2C5.84998 33.345 11.895 35.1 19.5 35.1C27.105 35.1 33.15 33.345 33.15 31.2V25.35C33.15 27.495 27.105 29.25 19.5 29.25ZM24.96 21.06C23.205 21.255 21.255 21.45 19.5 21.45C11.895 21.45 5.84998 19.695 5.84998 17.55V23.4C5.84998 25.545 11.895 27.3 19.5 27.3C27.105 27.3 33.15 25.545 33.15 23.4V19.5C31.395 20.865 29.445 21.45 27.3 21.45C26.52 21.45 25.74 21.255 24.96 21.06ZM19.5 19.5H21.45C19.5 18.135 18.135 15.99 17.745 13.65C11.115 13.455 5.84998 11.7 5.84998 9.74999V15.6C5.84998 17.745 11.895 19.5 19.5 19.5Z" fill="#FAFAFA"/>
</svg>
