<svg width="39" height="39" viewBox="0 0 39 39" fill="none" xmlns="http://www.w3.org/2000/svg">
<path d="M33.9727 29.4023H30.9258V26.3554C30.9258 26.1879 30.7887 26.0508 30.6211 26.0508H28.793C28.6254 26.0508 28.4883 26.1879 28.4883 26.3554V29.4023H25.4414C25.2739 29.4023 25.1367 29.5394 25.1367 29.707V31.5351C25.1367 31.7027 25.2739 31.8398 25.4414 31.8398H28.4883V34.8867C28.4883 35.0543 28.6254 35.1914 28.793 35.1914H30.6211C30.7887 35.1914 30.9258 35.0543 30.9258 34.8867V31.8398H33.9727C34.1403 31.8398 34.2774 31.7027 34.2774 31.5351V29.707C34.2774 29.5394 34.1403 29.4023 33.9727 29.4023ZM14.2251 18.982C14.1908 18.6507 14.1718 18.3155 14.1718 17.9765C14.1718 17.371 14.2289 16.7806 14.3356 16.2055C14.3622 16.0684 14.2899 15.9275 14.1642 15.8704C13.6462 15.6381 13.1701 15.3181 12.7588 14.9144C12.2741 14.4445 11.8927 13.8787 11.6389 13.2531C11.3852 12.6275 11.2646 11.9558 11.2849 11.281C11.3192 10.0585 11.8105 8.89685 12.6674 8.02088C13.6081 7.0573 14.8726 6.53172 16.217 6.54695C17.432 6.55838 18.605 7.02683 19.4924 7.85711C19.7933 8.13894 20.0523 8.45125 20.2694 8.7864C20.3455 8.90447 20.4941 8.95398 20.6236 8.90828C21.2939 8.67595 22.0023 8.51219 22.7297 8.43601C22.943 8.41316 23.0649 8.18465 22.9697 7.99422C21.7319 5.54529 19.2029 3.85427 16.2779 3.80857C12.058 3.74383 8.53888 7.20584 8.53888 11.4258C8.53888 13.8176 9.63956 15.9504 11.3649 17.3481C10.1537 17.908 9.03781 18.6811 8.07042 19.6485C5.98331 21.7318 4.80265 24.4816 4.72647 27.418C4.72546 27.4587 4.73259 27.4991 4.74744 27.537C4.7623 27.5748 4.78458 27.6093 4.81298 27.6384C4.84137 27.6675 4.87531 27.6907 4.91278 27.7064C4.95025 27.7222 4.9905 27.7304 5.03116 27.7303H7.16778C7.33155 27.7303 7.46866 27.6009 7.47247 27.4371C7.54484 25.2281 8.43986 23.16 10.0128 21.5909C11.1325 20.4712 12.5036 19.6942 14.0004 19.3172C14.1451 19.2753 14.2442 19.1344 14.2251 18.982V18.982ZM31.3828 17.9765C31.3828 13.8099 28.0351 10.4241 23.8837 10.3594C19.6638 10.2946 16.1485 13.7566 16.1485 17.9765C16.1485 20.3683 17.2529 22.5011 18.9744 23.8989C17.7508 24.4661 16.6368 25.2449 15.6838 26.1993C13.5967 28.2826 12.416 31.0324 12.3399 33.965C12.3388 34.0057 12.346 34.0461 12.3608 34.084C12.3757 34.1218 12.398 34.1563 12.4264 34.1854C12.4548 34.2145 12.4887 34.2376 12.5262 34.2534C12.5636 34.2692 12.6039 34.2773 12.6445 34.2773H14.7774C14.9411 34.2773 15.0782 34.1478 15.082 33.9841C15.1544 31.7751 16.0494 29.707 17.6224 28.1379C19.2639 26.4964 21.4424 25.5937 23.7656 25.5937C27.9703 25.5937 31.3828 22.185 31.3828 17.9765ZM27.2124 21.4233C26.2907 22.345 25.0682 22.8515 23.7656 22.8515C22.4631 22.8515 21.2405 22.345 20.3189 21.4233C19.8589 20.9658 19.4955 20.4206 19.2502 19.82C19.0049 19.2194 18.8826 18.5757 18.8906 17.927C18.9021 16.6778 19.401 15.4705 20.2732 14.5755C21.1872 13.6386 22.4098 13.1168 23.7161 13.1015C25.0073 13.0901 26.2603 13.5928 27.182 14.4955C28.1265 15.421 28.6445 16.6588 28.6445 17.9765C28.6407 19.2791 28.1341 20.5016 27.2124 21.4233V21.4233Z" fill="white"/>
</svg>
