<svg width="39" height="39" viewBox="0 0 39 39" fill="none" xmlns="http://www.w3.org/2000/svg">
<path d="M21.7912 19.5L28.7787 12.5287C29.0847 12.2228 29.2566 11.8077 29.2566 11.375C29.2566 10.9423 29.0847 10.5272 28.7787 10.2212C28.4727 9.91525 28.0577 9.74335 27.625 9.74335C27.1923 9.74335 26.7772 9.91525 26.4712 10.2212L19.5 17.2087L12.5287 10.2212C12.2227 9.91525 11.8077 9.74335 11.375 9.74335C10.9423 9.74335 10.5272 9.91525 10.2212 10.2212C9.91525 10.5272 9.74334 10.9423 9.74334 11.375C9.74334 11.8077 9.91525 12.2228 10.2212 12.5287L17.2087 19.5L10.2212 26.4712C10.0689 26.6223 9.94804 26.802 9.86554 27.0001C9.78305 27.1981 9.74057 27.4105 9.74057 27.625C9.74057 27.8395 9.78305 28.0519 9.86554 28.2499C9.94804 28.448 10.0689 28.6277 10.2212 28.7787C10.3723 28.9311 10.552 29.0519 10.7501 29.1344C10.9481 29.2169 11.1605 29.2594 11.375 29.2594C11.5895 29.2594 11.8019 29.2169 11.9999 29.1344C12.198 29.0519 12.3777 28.9311 12.5287 28.7787L19.5 21.7912L26.4712 28.7787C26.6223 28.9311 26.802 29.0519 27.0001 29.1344C27.1981 29.2169 27.4105 29.2594 27.625 29.2594C27.8395 29.2594 28.0519 29.2169 28.2499 29.1344C28.448 29.0519 28.6277 28.9311 28.7787 28.7787C28.931 28.6277 29.0519 28.448 29.1344 28.2499C29.2169 28.0519 29.2594 27.8395 29.2594 27.625C29.2594 27.4105 29.2169 27.1981 29.1344 27.0001C29.0519 26.802 28.931 26.6223 28.7787 26.4712L21.7912 19.5Z" fill="#FFFDFD"/>
</svg>
