<svg width="39" height="39" viewBox="0 0 39 39" fill="none" xmlns="http://www.w3.org/2000/svg">
<path d="M34.125 4.875H4.875C4.22853 4.875 3.60855 5.13181 3.15143 5.58893C2.69431 6.04605 2.4375 6.66603 2.4375 7.3125V31.6875C2.4375 32.334 2.69431 32.954 3.15143 33.4111C3.60855 33.8682 4.22853 34.125 4.875 34.125H34.125C34.7715 34.125 35.3915 33.8682 35.8486 33.4111C36.3057 32.954 36.5625 32.334 36.5625 31.6875V7.3125C36.5625 6.66603 36.3057 6.04605 35.8486 5.58893C35.3915 5.13181 34.7715 4.875 34.125 4.875V4.875ZM34.125 31.6875H14.625V7.3125H34.125V31.6875Z" fill="white"/>
</svg>
