<svg width="39" height="39" viewBox="0 0 39 39" fill="none" xmlns="http://www.w3.org/2000/svg">
<path d="M35.75 6.93335L31.7417 2.92502C31.3971 2.59652 30.9394 2.41327 30.4633 2.41327C29.9873 2.41327 29.5295 2.59652 29.185 2.92502L25.6208 6.50002H6.49999C5.92536 6.50002 5.37426 6.72829 4.96793 7.13462C4.5616 7.54095 4.33333 8.09205 4.33333 8.66668V32.5C4.33333 33.0747 4.5616 33.6258 4.96793 34.0321C5.37426 34.4384 5.92536 34.6667 6.49999 34.6667H30.3333C30.908 34.6667 31.4591 34.4384 31.8654 34.0321C32.2717 33.6258 32.5 33.0747 32.5 32.5V12.74L35.75 9.49002C36.0887 9.15081 36.2789 8.69104 36.2789 8.21168C36.2789 7.73232 36.0887 7.27256 35.75 6.93335V6.93335ZM20.3992 21.8075L15.86 22.815L16.9433 18.3192L27.2892 7.95168L30.7883 11.4508L20.3992 21.8075ZM31.9583 10.2158L28.4592 6.71668L30.4633 4.71252L33.9625 8.21168L31.9583 10.2158Z" fill="white"/>
</svg>
