<svg width="39" height="39" viewBox="0 0 39 39" fill="none" xmlns="http://www.w3.org/2000/svg">
<path d="M27.3 19.5C31.59 19.5 35.1 15.99 35.1 11.7C35.1 7.41 31.59 3.9 27.3 3.9C23.01 3.9 19.5 7.41 19.5 11.7C19.5 15.99 23.01 19.5 27.3 19.5ZM33.15 9.75V13.65H21.45V9.75H33.15ZM17.55 11.7C17.55 8.58 19.11 5.85 21.45 3.9H19.5C11.895 3.9 5.85001 5.655 5.85001 7.8C5.85001 9.75 10.92 11.31 17.55 11.7ZM24.96 21.06C23.205 21.255 21.255 21.45 19.5 21.45C11.895 21.45 5.85001 19.695 5.85001 17.55V23.4C5.85001 25.545 11.895 27.3 19.5 27.3C27.105 27.3 33.15 25.545 33.15 23.4V19.5C31.395 20.865 29.445 21.45 27.3 21.45C26.52 21.45 25.74 21.255 24.96 21.06ZM19.5 19.5H21.45C19.5 18.135 18.135 15.99 17.745 13.65C11.115 13.455 5.85001 11.7 5.85001 9.75V15.6C5.85001 17.745 11.895 19.5 19.5 19.5ZM19.5 29.25C11.895 29.25 5.85001 27.495 5.85001 25.35V31.2C5.85001 33.345 11.895 35.1 19.5 35.1C27.105 35.1 33.15 33.345 33.15 31.2V25.35C33.15 27.495 27.105 29.25 19.5 29.25Z" fill="white"/>
</svg>
